<?xml version="1.0" encoding="utf-8"?>
<!-- Generator: Adobe Illustrator 26.3.1, SVG Export Plug-In . SVG Version: 6.00 Build 0)  -->
<svg version="1.1" id="Camada_1" xmlns="http://www.w3.org/2000/svg" xmlns:xlink="http://www.w3.org/1999/xlink" x="0px" y="0px"
	 viewBox="0 0 500 500" style="enable-background:new 0 0 500 500;" xml:space="preserve">
<style type="text/css">
	.st0{fill:#CF3034;}
	.st1{fill:#3FA14C;}
	.st2{fill:#EEEEEE;}
	.st3{fill:#FFD647;}
	.st4{fill:#3773A5;}
</style>
<g>
	<g>
		<path class="st0" d="M372.13,140.06c0.36-25.9,0.51-51.82-0.07-77.7c-0.44-19.36-11.96-32.45-27.54-42.2
			c-19.5-12.2-41.63-15.7-63.93-18.43c-1.47-0.18-3.35,0.63-4.21-1.43h-62.49c-1.88,2.7-4.81,2.26-7.52,2.64
			c-19.73,2.82-39.06,6.98-56.07,18.2c-13.94,9.2-21.4,21.61-20.66,38.88c0.63,14.78,0.61,29.64-0.07,44.41
			c-0.35,7.43,2.25,8.56,8.91,8.5c35.16-0.35,70.32-0.03,105.48-0.35c6.04-0.06,8,1.32,7.64,7.57c-0.57,9.89-0.14,9.91-10.05,9.91
			c-53.9,0.01-107.8-0.01-161.7,0.01c-28.97,0.03-49.31,14.26-63.13,38.88c-9.18,16.41-13.01,34.42-15.26,52.87
			c-0.15,1.31,0.29,2.85-1.47,3.46v51.4c3.32,6.7,2.7,14.19,4.22,21.26c4.42,20.54,10.8,40.09,25.57,55.86
			c11.92,12.73,26.32,19.86,44.06,19.66c10.99-0.11,22-0.29,32.96,0.28c6.09,0.32,7.21-1.89,7.11-7.42
			c-0.22-14.06-0.43-28.12-0.24-42.17c-0.03-0.01-0.07-0.03-0.1-0.04c-10.03-4.45-16.74-12.03-18.9-21.36
			c-1.81-7.75-0.13-16.19,4.7-23.76c1.15-1.79,1.17-4.1,0.04-5.91c-3.95-6.39-5.66-12.85-5.1-19.2c0.83-9.2,6.28-17.55,16.2-24.82
			l20.22-14.8c33.52-24.54,68.07-49.83,101.92-74.9c4.57-3.39,9.06-4.96,14.13-4.96c2.11,0,4.35,0.29,6.82,0.9
			c20.9,5.28,42.35,10.64,62.52,15.67c17.2,4.28,36.55,9.1,56.26,14.08C372.34,156.74,372.01,148.4,372.13,140.06z M182.04,82.54
			c-12.63-0.28-21.68-9.57-21.54-22.15c0.13-12.38,9.7-21.65,22.25-21.55c11.87,0.1,21.51,10.3,21.41,22.62
			C204.07,72.99,193.79,82.8,182.04,82.54z"/>
		<path class="st1" d="M490.34,175.78c-7.86-19.48-19.45-35.59-39.19-44.63c-5.53-2.53-11.34-4.14-17.34-4.27
			c-13.19-0.26-26.39,0.08-39.57-0.18c-4.65-0.1-5.91,1.58-5.85,6c0.13,12.16,0.33,24.33,0.28,36.49c0.65,0.17,1.31,0.33,1.96,0.5
			c3.67,0.92,6.53,2.97,8.82,4.63l0.42,0.32c0.69,0.49,1.35,0.96,1.96,1.32c2.01,1.21,3.42,3.24,3.86,5.57
			c0.44,2.32-0.12,4.74-1.57,6.61c-0.56,0.74-1.06,1.47-1.56,2.22c-1.53,2.22-3.24,4.74-5.82,6.86c-0.04,0.04-0.1,0.08-0.14,0.11
			c-0.17,0.15-0.6,0.49-0.79,0.64c-1.78,1.38-2.56,3.65-1.99,5.82c0.57,2.15,2.38,3.77,4.59,4.09c2.04,0.29,3.88,1.28,5.2,2.79
			c1.53,1.76,2.28,4.09,2.04,6.35c-0.01,0.08-0.01,0.17-0.01,0.25c-0.03,0.35-0.03,0.72-0.03,1.08c-0.01,2.36-0.03,5.96-2.5,9.18
			c-2.13,2.75-4.68,4.77-6.93,6.53c-0.72,0.57-1.38,1.07-2.01,1.61l-0.19,0.17c-0.22,0.18-0.46,0.38-0.68,0.57
			c-1.61,1.45-2.25,3.7-1.63,5.77c0.63,2.07,2.4,3.58,4.54,3.89c3.5,0.5,6.29,2.18,7.86,4.74c0.08,0.13,0.15,0.25,0.24,0.38
			c1.56,2.77,2.93,8.81,0.06,13.73c-0.03,0.04-0.1,0.14-0.17,0.28c-1.81,2.9-4.25,4.85-6.21,6.42c-0.36,0.28-0.76,0.6-1.17,0.94
			c-10.05,8.32-20.09,16.65-30.14,24.96l-5.2,4.31c-21.08,17.44-45.55,37.7-69.09,57.36c-5.21,4.35-10.32,6.38-16.13,6.38
			c-2.25,0-4.56-0.31-7.03-0.94c-26.33-6.73-53.15-13.42-79.06-19.9l-2.24-0.56c-18.05-4.5-36.1-9-54.14-13.56
			c-1.18-0.29-2.39-0.61-3.64-0.94c0.08,34.35,0.36,68.69-0.17,103.02c-0.36,22.36,10.87,37.02,28.75,47.84
			c16.95,10.24,35.93,14.63,55.29,16.84c29.01,3.29,58.11,3.21,87.06-1.04c18.33-2.68,36.1-7.34,51.7-18.05
			c12.85-8.82,20.09-20.38,19.55-36.59c-0.51-15.73-0.39-31.49,0.04-47.22c0.15-6.06-2.01-7.24-7.56-7.21
			c-35.41,0.22-70.83,0.15-106.24,0.03c-2.67,0-6.93,1.92-7.75-2.07c-0.94-4.63-1.47-9.8,0.49-14.31c0.97-2.26,4.24-1,6.42-1
			c43.66-0.06,87.32-0.03,130.99,0.03c11.55,0.01,23.09,0.21,34.64,0.22c29.12,0.07,55.4-19.34,66.89-48.62
			c4.49-11.42,6.92-23.3,9.75-35.13v-76.38C496.32,198.74,494.83,186.85,490.34,175.78z M319.15,417.42
			c12.31-0.22,22.41,9.37,22.51,21.39c0.11,12.19-9.57,22.34-21.51,22.58c-12.13,0.24-21.76-9.45-21.79-21.91
			C298.34,427.03,307.19,417.65,319.15,417.42z"/>
		<path class="st2" d="M160.5,60.38c0.13-12.38,9.7-21.65,22.25-21.55c11.87,0.1,21.51,10.29,21.41,22.62
			c-0.1,11.53-10.38,21.34-22.11,21.08C169.42,82.26,160.37,72.96,160.5,60.38z"/>
		<path class="st2" d="M341.66,438.8c0.1,12.2-9.57,22.36-21.51,22.59c-12.13,0.24-21.76-9.45-21.79-21.92
			c-0.03-12.43,8.83-21.82,20.79-22.05C331.46,417.19,341.56,426.78,341.66,438.8z"/>
	</g>
	<g>
		<path class="st3" d="M397.16,260.71c-1.33,2.18-3.65,3.75-5.69,5.46c-34.83,28.9-69.75,57.65-104.43,86.64
			c-4.93,4.13-9.39,5.36-15.8,3.75c-45.07-11.53-90.29-22.63-135.41-34.02c-6.41-1.61-12.86-3.37-18.84-6.03
			c-15.94-7.07-19.31-23.06-8.07-36.44c1-1.19,2.09-2.32,3.46-3.84c0,0,1.38,3.32,17.41,6.6c-0.43-0.05-0.81-0.09-1.23-0.09
			c-9.49-0.71-14.9,2.94-16.75,10.87c-1.66,7.02,1.19,12.24,10.3,15.33c11.01,3.75,22.3,6.55,33.59,9.39
			c37.67,9.54,75.44,18.84,113.11,28.52c6.17,1.61,10.63,0.81,15.66-3.46c34.02-28.61,68.32-56.84,102.58-85.17
			c1.61-1.33,3.18-3.04,5.08-3.7c1.42-0.52,4.27-0.24,4.84,0.71C397.78,256.63,397.97,259.33,397.16,260.71z"/>
		<path class="st4" d="M397.35,216.15c-0.24,2.14,0.24,4.89-0.85,6.31c-2.04,2.66-5.03,4.6-7.69,6.83
			c-34.21,28.37-68.47,56.65-102.58,85.17c-4.51,3.75-8.49,4.74-14.33,3.23c-43.27-11.15-86.69-21.87-130.05-32.64
			c-3.94-1-7.97-1.85-12-2.23l0,0c-16.04-3.23-17.41-6.6-17.41-6.6c-14.23-14.95-12.91-28.75,3.04-40.43
			c40.76-29.84,81.56-59.64,122.18-89.72c4.55-3.37,8.64-3.99,13.95-2.66c45.64,11.53,91.38,22.77,136.98,34.35
			c3.23,0.81,5.93,3.51,8.92,5.31c-1.99,2.61-3.61,5.69-6.07,7.73c-2.37,1.9-4.74,3.84-7.12,5.74c-32.45,26.1-65.05,52-97.41,78.24
			c-5.08,4.13-9.49,5.17-15.8,3.56c-29.8-7.59-59.64-15.04-89.53-22.44c-14.57-3.61-29.09-7.21-43.65-10.82
			c-3.04-0.76-6.22-1.19-9.39-1.38c-9.77-0.52-14.8,2.94-16.61,10.96c-1.57,6.93,1.47,12.19,10.49,15.18
			c1.8,0.62,3.65,1.19,5.5,1.76c10.06,3.08,20.26,5.65,30.41,8.26c37.44,9.49,74.92,18.74,112.31,28.33
			c4.79,1.23,8.3,0.71,12.24-2.61c34.3-28.66,68.8-57.13,103.25-85.64c1.61-1.33,3.08-3.23,4.98-3.84
			C392.89,215.54,395.22,216.11,397.35,216.15z"/>
	</g>
</g>
</svg>
